<?xml version="1.0" standalone="no"?>
<!DOCTYPE svg PUBLIC "-//W3C//DTD SVG 1.0//EN" "http://www.w3.org/TR/2001/REC-SVG-20010904/DTD/svg10.dtd">
<svg width="643" height="600" viewBox="0 0 643 600" xmlns="http://www.w3.org/2000/svg">
<title>Triple Spiral symbol -- three double Archimedean spirals (version of symbol found in prehistoric tomb at Newgrange, Ireland)</title>
<g fill="none" transform="translate(3,702.5) scale(0.104,-0.104)">
<path fill="rgb(255,255,255)" d="M4.8637,2547.04
C4.8637,3222.07,481.236,3845.49,1187.21,3957.64
C1256.23,3968.61,1329.84,3973.96,1402.72,3973.96
C1631.73,3973.96,1891.57,3914.56,2135.58,3752.02
C1696.61,4076.96,1436.75,4574.43,1436.75,5125.39
C1436.75,5585.97,1636.25,6053.21,2018.99,6370.27
C2238.25,6551.91,2577.15,6729.31,3014.46,6729.31
C3714.81,6729.31,4351.8,6234.11,4468.21,5512.74
C4479.89,5440.36,4485.6,5362.97,4485.6,5286.49
C4485.6,4800.92,4222.85,4316.54,3742.96,4079.11
C3999.58,4190.64,4234.76,4224.67,4442.42,4224.67
C4913.4,4224.67,5393.51,4020.62,5719.47,3628.48
C5908.14,3401.55,6090.57,3053.13,6090.57,2602.02
C6090.57,1886.75,5586.32,1227.27,4839.76,1105.11
C4764.03,1092.71,4682.89,1086.63,4602.81,1086.63
C4079.54,1086.63,3563.95,1382.91,3333.78,1901
C3270.94,2042.44,3220.07,2224.09,3220.07,2439.49
C3220.07,2468.05,3220.93,2496.49,3222.71,2524.49
C3122.82,1644.79,2402.88,1014.29,1564.5,1014.29
C828.665,1014.29,151.468,1533.44,24.4417,2299.37
C11.3262,2378.45,4.8637,2463.37,4.8637,2547.04Z
M2304.77,3960.3
L2319.5,3949.73
C2635.08,3726.98,2964.48,3301.23,2964.48,2708.74
C2964.48,2660.42,2962.22,2612.42,2957.67,2566.36
C2970.14,2681.75,2987.48,2813.07,3049.89,2980.26
C3179.76,3328.15,3449.17,3652.05,3838.12,3828.17
L3822.29,3821
C3651.29,3742.04,3434.2,3680.5,3175.47,3680.5
C2786.82,3680.5,2488.31,3828.72,2304.77,3960.3Z"/>
<path stroke-width="67.03125" stroke="rgb(0,0,0)" d="M1484.67,2627.9
C1491.78,2627.65,1500.14,2629.62,1506.44,2632.92
C1513.16,2636.44,1519.85,2642.62,1524.13,2648.88
C1528.89,2655.84,1532.4,2665.27,1533.69,2673.61
C1535.17,2683.09,1534.4,2694.4,1532.03,2703.69
C1529.33,2714.28,1523.7,2725.85,1517.33,2734.73
C1510.11,2744.82,1499.58,2754.85,1489.35,2761.88
C1477.83,2769.79,1462.95,2776.53,1449.49,2780.29
C1434.46,2784.5,1416.35,2786.4,1400.75,2785.72
C1383.48,2784.98,1363.77,2780.88,1347.53,2774.97
C1329.68,2768.47,1310.34,2757.76,1295.19,2746.3
C1278.65,2733.8,1261.86,2716.49,1249.63,2699.75
C1236.37,2681.6,1224.27,2658.43,1216.71,2637.25
C1208.55,2614.41,1203.08,2586.77,1201.65,2562.55
C1200.12,2536.56,1202.73,2506.44,1208.47,2481.04
C1214.61,2453.89,1226.18,2423.73,1239.55,2399.32
C1253.79,2373.33,1274.43,2345.83,1295.23,2324.72
C1317.29,2302.32,1346.3,2280.21,1373.62,2264.65
C1402.51,2248.19,1438.37,2233.99,1470.64,2225.95
C1504.66,2217.48,1545.12,2213.25,1580.17,2214.25
C1617.04,2215.3,1659.23,2222.43,1694.47,2233.33
C1731.45,2244.77,1772.1,2263.82,1804.68,2284.73
C1838.79,2306.62,1874.5,2337.21,1901.54,2367.41
C1929.81,2398.97,1957.27,2439.71,1976.12,2477.64
C1995.79,2517.22,2012.13,2565.8,2020.59,2609.18
C2029.41,2654.36,2032.41,2707.65,2028.95,2753.55
C2025.35,2801.28,2013.7,2855.55,1997.61,2900.63
C1980.9,2947.44,1954.36,2998.59,1925.88,3039.33
C1896.36,3081.58,1855.82,3125.48,1816.2,3158.46
C1775.17,3192.6,1722.69,3225.41,1674.12,3247.55
C1623.87,3270.46,1562.57,3288.92,1508.06,3297.8
C1451.74,3306.98,1385.61,3308.74,1328.86,3302.8
C1270.27,3296.67,1203.92,3280.5,1149,3259.2
C1092.36,3237.24,1030.7,3203.2,981.804,3167.15
C931.419,3130.01,879.31,3079.52,840.42,3030.47
C800.383,2979.97,762.227,2915.76,736.811,2856.54
C710.667,2795.62,690.077,2721.6,680.787,2655.97
C671.238,2588.51,670.713,2509.54,679.142,2441.92
C687.799,2372.48,708.485,2294.05,734.994,2229.28
C762.203,2162.81,803.732,2090.65,847.365,2033.6
C892.121,1975.07,952.569,1914.76,1011.06,1869.95
C1071.01,1824.02,1146.97,1780.52,1216.83,1751.83
C1288.41,1722.44,1375.16,1699.72,1451.92,1690.03
C1530.52,1680.11,1622.33,1680.82,1700.8,1691.74
C1781.1,1702.92,1871.61,1728.12,1946.22,1759.85
C2022.53,1792.3,2105.19,1841.32,2170.4,1892.54
C2237.07,1944.91,2305.59,2015.31,2356.31,2083.24
C2408.13,2152.65,2456.99,2240.35,2488.94,2320.86
C2521.58,2403.09,2546.43,2502.57,2556.52,2590.47
C2566.82,2680.2,2564.87,2784.86,2551.45,2874.18
C2537.76,2965.33,2508.04,3067.94,2471.09,3152.38
C2433.4,3238.52,2376.88,3331.69,2318.07,3405.05
C2258.1,3479.86,2177.74,3556.59,2100.37,3613.22
C2021.51,3670.94,1922.07,3725.15,1830.9,3760.37
C1738.01,3796.25,1625.81,3823.23,1526.78,3833.72
C1425.91,3844.41,1308.41,3841.22,1208.23,3825.3
C1106.22,3809.1,991.53,3774.85,897.245,3732.68
C801.27,3689.76,697.598,3625.75,616.083,3559.34
C533.131,3491.77,448.191,3401.45,385.654,3314.64
C322.035,3226.32,262.474,3115.14,223.993,3013.32
C184.857,2909.78,155.747,2784.84,144.863,2674.68
C133.797,2562.68,138.221,2432.33,156.636,2321.29
C175.354,2208.43,214.118,2081.65,261.513,1977.53
C309.677,1871.72,381.182,1757.54,455.177,1667.88
C530.352,1576.78,630.632,1483.63,726.887,1415.19
C824.653,1345.67,947.582,1280.76,1060.05,1239.01
C1174.25,1196.62,1311.91,1165.38,1433.21,1154.11
C1556.34,1142.66,1699.54,1148.32,1821.43,1169.23
C1945.15,1190.46,2084.01,1233.75,2197.97,1286.37
C2313.62,1339.77,2438.3,1418.77,2536.12,1500.35
C2635.36,1583.13,2736.72,1693.37,2811.07,1799.07
C2886.49,1906.29,2956.75,2040.96,3001.76,2164.08
C3047.4,2288.93,3080.77,2439.33,3092.86,2571.74
C3103.59,2689.33,3134.12,2822.75,3175.43,2933.4
C3216.08,3042.32,3279.21,3161.33,3346.76,3255.95
C3413.24,3349.06,3503.65,3446.02,3592.03,3518.66
C3678.98,3590.12,3789.66,3659.13,3892.19,3705.55
C3993.03,3751.2,4115.78,3788.46,4225.02,3806.34
C4332.44,3823.92,4458.51,3827.93,4566.8,3816.99
C4673.25,3806.24,4793.94,3777.84,4893.94,3739.79
C4992.2,3702.39,5099.47,3644.62,5184.63,3582.96
C5268.3,3522.4,5355.3,3440.19,5420.34,3359.96
C5484.21,3281.16,5545.72,3180.99,5586.9,3088.29
C5627.33,2997.29,5660.07,2886.62,5675.44,2788.24
C5690.52,2691.68,5693.3,2578.45,5682.74,2481.3
C5672.38,2385.98,5646.11,2278.02,5611.31,2188.68
C5577.18,2101.06,5524.76,2005.54,5469,1929.83
C5414.34,1855.6,5340.35,1778.56,5268.25,1721.13
C5197.61,1664.85,5107.95,1610.83,5025.08,1574.88
C4943.92,1539.68,4845.34,1511.46,4757.81,1498.6
C4672.1,1486.02,4571.73,1484.48,4485.7,1494.66
C4401.52,1504.62,4306.28,1528.76,4227.6,1560.31
C4150.64,1591.17,4066.85,1638.25,4000.6,1688.11
C3935.82,1736.85,3868.73,1802.64,3818.9,1866.59
C3770.21,1929.09,3723.69,2008.24,3692.98,2081.27
C3662.99,2152.6,3639.3,2239.09,3628.96,2315.77
C3618.87,2390.62,3618.57,2478.15,3628.37,2553.04
C3637.93,2626.09,3659.94,2708.6,3688.24,2776.62
C3715.84,2842.93,3757.56,2914.98,3801.53,2971.78
C3844.36,3027.12,3901.94,3084.25,3957.75,3126.47
C4012.09,3167.57,4080.74,3206.6,4143.94,3232.07
C4205.43,3256.84,4279.83,3276.02,4345.65,3283.83
C4409.65,3291.43,4484.34,3290.49,4548.09,3281.07
C4610.01,3271.91,4679.79,3252.03,4737.15,3226.97
C4792.82,3202.64,4853.12,3166.27,4900.47,3128.2
C4946.37,3091.28,4993.54,3041.91,5028.15,2994.23
C5061.67,2948.05,5093.21,2889.9,5113.42,2836.54
C5132.98,2784.89,5147.65,2722.58,5152.93,2667.61
C5158.05,2614.47,5155.87,2552.62,5146.82,2500.01
C5138.07,2449.21,5120.32,2392.16,5098.49,2345.46
C5077.45,2300.43,5046.42,2251.87,5014.24,2213.99
C4983.24,2177.52,4942.07,2140.3,4902.53,2113.31
C4864.51,2087.37,4816.86,2063.32,4773.33,2048.36
C4731.53,2034.01,4681.29,2023.86,4637.18,2021.11
C4594.89,2018.47,4545.88,2021.88,4504.42,2030.58
C4464.75,2038.91,4420.41,2054.53,4384.39,2073.13
C4349.99,2090.89,4313.16,2116.57,4284.77,2142.87
C4257.71,2167.94,4230.44,2200.91,4211.09,2232.31
C4192.7,2262.17,4176.14,2299.33,4166.46,2333.03
C4157.29,2364.99,4151.66,2403.15,4151.47,2436.4
C4151.28,2467.83,4155.93,2504.02,4164.29,2534.32
C4172.17,2562.88,4185.68,2594.51,4201.06,2619.83
C4215.51,2643.62,4235.85,2668.72,4256.29,2687.61
C4275.42,2705.28,4300.2,2722.61,4323.47,2734.28
C4345.16,2745.15,4371.83,2754.23,4395.7,2758.58
C4417.82,2762.62,4443.93,2763.73,4466.28,2761.33
C4486.9,2759.11,4510.27,2753.21,4529.37,2745.15
C4546.87,2737.75,4565.82,2726.36,4580.37,2714.15
C4593.61,2703.04,4607.01,2688.01,4616.3,2673.43
C4624.68,2660.27,4632.09,2643.63,4635.96,2628.51
C4639.43,2614.97,4641.04,2598.72,4639.94,2584.78
C4638.97,2572.41,4635.55,2558.28,4630.43,2546.98
C4625.92,2537.02,4618.72,2526.36,4610.89,2518.73
C4604.03,2512.03,4594.62,2505.71,4585.68,2502.25
C4577.8,2499.2,4567.89,2497.52,4559.47,2498.16
C4551.91,2498.74,4543.22,2501.45,4536.81,2505.5
C4530.8,2509.31,4524.91,2515.56,4521.57,2521.84
C4518.23,2528.12,4512.35,2534.38,4506.34,2538.19
C4499.93,2542.24,4491.24,2544.95,4483.68,2545.53
C4475.26,2546.17,4465.34,2544.49,4457.47,2541.44
C4448.53,2537.98,4439.11,2531.66,4432.25,2524.96
C4424.43,2517.32,4417.23,2506.67,4412.72,2496.71
C4407.6,2485.41,4404.17,2471.28,4403.2,2458.91
C4402.11,2444.97,4403.71,2428.72,4407.19,2415.18
C4411.06,2400.06,4418.47,2383.42,4426.85,2370.26
C4436.13,2355.67,4449.54,2340.65,4462.78,2329.54
C4477.33,2317.33,4496.28,2305.94,4513.78,2298.54
C4532.87,2290.47,4556.25,2284.58,4576.86,2282.36
C4599.22,2279.95,4625.33,2281.07,4647.45,2285.1
C4671.31,2289.46,4697.99,2298.54,4719.67,2309.41
C4742.95,2321.08,4767.73,2338.41,4786.85,2356.08
C4807.29,2374.97,4827.63,2400.07,4842.08,2423.85
C4857.47,2449.18,4870.97,2480.81,4878.86,2509.37
C4887.22,2539.67,4891.87,2575.86,4891.68,2607.29
C4891.49,2640.54,4885.86,2678.7,4876.68,2710.66
C4867.01,2744.36,4850.45,2781.52,4832.06,2811.37
C4812.71,2842.78,4785.44,2875.75,4758.38,2900.82
C4729.98,2927.12,4693.15,2952.8,4658.76,2970.56
C4622.74,2989.16,4578.4,3004.78,4538.73,3013.11
C4497.27,3021.81,4448.25,3025.22,4405.97,3022.58
C4361.86,3019.83,4311.62,3009.68,4269.82,2995.32
C4226.28,2980.37,4178.63,2956.32,4140.61,2930.37
C4101.08,2903.39,4059.91,2866.17,4028.91,2829.69
C3996.72,2791.82,3965.7,2743.25,3944.65,2698.23
C3922.83,2651.53,3905.07,2594.47,3896.33,2543.68
C3887.27,2491.07,3885.1,2429.22,3890.21,2376.08
C3895.5,2321.11,3910.16,2258.8,3929.72,2207.15
C3949.93,2153.79,3981.47,2095.64,4015,2049.45
C4049.6,2001.78,4096.78,1952.41,4142.68,1915.49
C4190.02,1877.42,4250.32,1841.04,4305.99,1816.72
C4363.36,1791.66,4433.14,1771.78,4495.06,1762.62
C4558.81,1753.2,4633.5,1752.26,4697.49,1759.86
C4763.32,1767.67,4837.72,1786.85,4899.2,1811.62
C4962.4,1837.08,5031.06,1876.12,5085.39,1917.22
C5141.21,1959.44,5198.78,2016.57,5241.62,2071.91
C5285.58,2128.71,5327.31,2200.75,5354.9,2267.07
C5383.21,2335.09,5405.22,2417.6,5414.78,2490.65
C5424.58,2565.54,5424.28,2653.07,5414.19,2727.92
C5403.85,2804.6,5380.15,2891.09,5350.16,2962.41
C5319.46,3035.44,5272.94,3114.6,5224.24,3177.1
C5174.42,3241.05,5107.33,3306.83,5042.55,3355.58
C4976.29,3405.44,4892.51,3452.51,4815.54,3483.38
C4736.86,3514.93,4641.63,3539.07,4557.44,3549.03
C4471.42,3559.21,4371.04,3557.67,4285.34,3545.09
C4197.81,3532.23,4099.23,3504.01,4018.07,3468.81
C3935.2,3432.86,3845.54,3378.84,3774.89,3322.56
C3702.8,3265.13,3628.8,3188.08,3574.15,3113.86
C3518.39,3038.15,3465.96,2942.62,3431.83,2855.01
C3397.03,2765.67,3370.76,2657.71,3360.41,2562.39
C3349.85,2465.24,3352.62,2352.01,3367.71,2255.45
C3383.07,2157.06,3415.81,2046.4,3456.24,1955.4
C3497.42,1862.7,3558.94,1762.53,3622.81,1683.73
C3687.85,1603.5,3774.85,1521.29,3858.51,1460.72
C3943.68,1399.07,4050.95,1341.29,4149.21,1303.9
C4249.21,1265.85,4369.9,1237.45,4476.35,1226.7
C4584.64,1215.76,4710.71,1219.77,4818.12,1237.35
C4927.36,1255.23,5050.12,1292.49,5150.96,1338.14
C5253.49,1384.56,5364.17,1453.57,5451.12,1525.03
C5539.5,1597.67,5629.91,1694.63,5696.39,1787.74
C5763.94,1882.36,5827.07,2001.37,5867.72,2110.29
C5909.03,2220.94,5939.56,2354.36,5950.7,2471.94
C5962.02,2591.36,5956.78,2730.28,5936.69,2848.55
C5916.3,2968.65,5874.52,3103.49,5823.65,3214.17
C5771.99,3326.53,5695.49,3447.72,5616.43,3542.82
C5536.19,3639.34,5429.27,3737.96,5326.72,3810.35
C5222.65,3883.8,5091.9,3952.28,4972.33,3996.2
C4851.02,4040.75,4704.87,4073.41,4576.16,4084.95
C4445.6,4096.66,4293.83,4090.17,4164.71,4067.59
C4033.76,4044.69,3886.83,3998.39,3766.12,3942.66
C3658.91,3893.15,3528.1,3852.88,3411.62,3833.33
C3296.97,3814.08,3162.33,3809.24,3046.62,3820.44
C2932.75,3831.45,2803.57,3861.27,2696.47,3901.49
C2591.11,3941.06,2476.01,4002.4,2384.54,4067.99
C2294.58,4132.5,2200.94,4220.17,2130.84,4305.84
C2061.9,4390.07,1995.39,4497.25,1950.72,4596.5
C1906.81,4694.06,1871.06,4812.78,1854.01,4918.41
C1837.27,5022.2,1833.67,5143.99,1844.48,5248.57
C1855.1,5351.31,1882.79,5467.76,1919.76,5564.2
C1956.06,5658.92,2012.05,5762.27,2071.74,5844.28
C2130.34,5924.8,2209.81,6008.48,2287.33,6070.99
C2363.41,6132.33,2460.08,6191.34,2549.5,6230.78
C2637.22,6269.47,2743.86,6300.7,2838.63,6315.23
C2931.57,6329.48,3040.51,6331.84,3133.95,6321.41
C3225.56,6311.19,3329.28,6285.63,3415.07,6251.91
C3499.13,6218.87,3590.74,6168.23,3663.3,6114.44
C3734.38,6061.75,3808.1,5990.49,3863,5921.11
C3916.75,5853.18,3968.27,5767.02,4002.47,5687.43
C4035.94,5609.55,4062.65,5515,4074.66,5431.09
C4086.42,5349,4087.54,5252.9,4077.49,5170.59
C4067.66,5090.12,4044.23,4999.13,4013.76,4924
C3983.99,4850.58,3938.7,4770.71,3890.81,4707.61
C3844.03,4645.98,3780.98,4582.21,3719.74,4534.92
C3659.96,4488.75,3584.31,4444.73,3514.56,4415.77
C3446.51,4387.52,3364.05,4365.33,3290.99,4355.83
C3219.76,4346.57,3136.51,4346.69,3065.33,4356.36
C2995.99,4365.78,2917.72,4387.08,2853.26,4414.31
C2790.49,4440.82,2722.36,4480.75,2668.71,4522.76
C2616.52,4563.62,2562.71,4618.46,2523.02,4671.56
C2484.45,4723.18,2447.91,4788.33,2424.2,4848.25
C2401.17,4906.46,2383.49,4976.83,2376.52,5039.04
C2369.75,5099.41,2371.1,5169.82,2380.4,5229.86
C2389.42,5288.07,2408.59,5353.61,2432.57,5407.42
C2455.81,5459.54,2490.4,5515.93,2526.51,5560.12
C2561.45,5602.88,2608.09,5646.73,2653.05,5678.8
C2696.51,5709.79,2751.16,5738.84,2801.25,5757.3
C2849.61,5775.12,2907.91,5788.28,2959.26,5792.72
C3008.78,5797.01,3066.35,5794.42,3115.24,5785.49
C3162.33,5776.88,3215.15,5759.84,3258.28,5739.09
C3299.76,5719.14,3344.42,5689.9,3379.13,5659.67
C3412.47,5630.65,3446.37,5592.21,3470.81,5555.39
C3494.24,5520.09,3515.79,5475.94,3528.99,5435.68
C3541.62,5397.16,3550.25,5350.95,3552.16,5310.46
C3553.98,5271.79,3550.15,5227.05,3541.57,5189.31
C3533.39,5153.34,3518.47,5113.24,3500.95,5080.78
C3484.29,5049.93,3460.39,5017.01,3436.04,4991.78
C3412.95,4967.85,3382.71,4943.9,3354.02,4927.1
C3326.89,4911.23,3293.23,4897.16,3262.8,4889.25
C3234.12,4881.8,3199.98,4877.67,3170.36,4878.34
C3142.54,4878.96,3110.62,4884.02,3084.05,4892.28
C3059.18,4900.01,3031.78,4912.8,3010.04,4927.13
C2989.78,4940.47,2968.58,4959.03,2952.88,4977.52
C2938.32,4994.66,2924.3,5016.72,2915.21,5037.28
C2906.83,5056.24,2900.24,5079.43,2897.68,5100.01
C2895.34,5118.86,2895.73,5140.96,2899.03,5159.67
C2902.03,5176.69,2908.34,5195.81,2916.32,5211.14
C2923.54,5224.98,2934.24,5239.72,2945.39,5250.63
C2955.38,5260.41,2968.66,5269.92,2981.27,5275.95
C2992.47,5281.29,3006.42,5285.39,3018.77,5286.61
C3029.65,5287.68,3042.48,5286.77,3053.01,5283.82
C3062.24,5281.23,3072.42,5276.23,3079.89,5270.22
C3086.46,5264.92,3092.87,5257.18,3096.52,5249.56
C3099.8,5242.73,3101.81,5233.85,3101.5,5226.27
C3101.21,5219.16,3098.73,5210.94,3094.97,5204.9
C3091.2,5198.87,3088.72,5190.64,3088.43,5183.54
C3088.12,5175.96,3090.13,5167.08,3093.41,5160.24
C3097.06,5152.63,3103.47,5144.89,3110.04,5139.59
C3117.51,5133.58,3127.69,5128.58,3136.92,5125.99
C3147.45,5123.04,3160.28,5122.13,3171.16,5123.2
C3183.51,5124.41,3197.46,5128.52,3208.66,5133.86
C3221.27,5139.88,3234.55,5149.4,3244.54,5159.18
C3255.69,5170.09,3266.39,5184.82,3273.61,5198.67
C3281.59,5213.99,3287.9,5233.12,3290.9,5250.14
C3294.2,5268.85,3294.59,5290.95,3292.25,5309.8
C3289.69,5330.37,3283.1,5353.57,3274.72,5372.53
C3265.63,5393.09,3251.61,5415.15,3237.05,5432.29
C3221.35,5450.77,3200.15,5469.34,3179.89,5482.68
C3158.15,5497,3130.75,5509.8,3105.88,5517.53
C3079.31,5525.78,3047.39,5530.85,3019.57,5531.47
C2989.95,5532.14,2955.81,5528.01,2927.13,5520.56
C2896.7,5512.65,2863.04,5498.58,2835.91,5482.7
C2807.22,5465.91,2776.98,5441.96,2753.89,5418.03
C2729.54,5392.8,2705.64,5359.88,2688.98,5329.02
C2671.46,5296.57,2656.54,5256.47,2648.36,5220.5
C2639.78,5182.75,2635.96,5138.02,2637.77,5099.35
C2639.68,5058.86,2648.31,5012.65,2660.94,4974.13
C2674.14,4933.87,2695.69,4889.72,2719.12,4854.42
C2743.56,4817.59,2777.46,4779.16,2810.8,4750.14
C2845.51,4719.91,2890.17,4690.67,2931.65,4670.72
C2974.78,4649.97,3027.6,4632.93,3074.69,4624.32
C3123.58,4615.38,3181.15,4612.8,3230.67,4617.08
C3282.02,4621.53,3340.32,4634.69,3388.68,4652.51
C3438.77,4670.97,3493.42,4700.01,3536.88,4731.01
C3581.84,4763.08,3628.48,4806.93,3663.42,4849.69
C3699.53,4893.88,3734.12,4950.27,3757.36,5002.39
C3781.34,5056.2,3800.51,5121.74,3809.53,5179.95
C3818.83,5239.99,3820.18,5310.4,3813.41,5370.77
C3806.44,5432.98,3788.76,5503.35,3765.73,5561.56
C3742.02,5621.48,3705.48,5686.63,3666.91,5738.25
C3627.22,5791.35,3573.41,5846.19,3521.22,5887.05
C3467.57,5929.05,3399.44,5968.99,3336.67,5995.5
C3272.21,6022.72,3193.94,6044.02,3124.6,6053.45
C3053.42,6063.12,2970.17,6063.23,2898.94,6053.98
C2825.88,6044.48,2743.42,6022.29,2675.38,5994.04
C2605.62,5965.08,2529.97,5921.05,2470.19,5874.89
C2408.95,5827.6,2345.9,5763.83,2299.13,5702.2
C2251.23,5639.09,2205.94,5559.22,2176.17,5485.81
C2145.7,5410.68,2122.27,5319.69,2112.44,5239.21
C2102.39,5156.9,2103.51,5060.81,2115.27,4978.72
C2127.28,4894.81,2153.99,4800.26,2187.46,4722.38
C2221.66,4642.79,2273.18,4556.63,2326.93,4488.7
C2381.83,4419.32,2455.55,4348.06,2526.63,4295.37
C2599.19,4241.58,2690.8,4190.94,2774.86,4157.9
C2860.65,4124.18,2964.37,4098.62,3055.98,4088.4
C3149.42,4077.97,3258.36,4080.33,3351.3,4094.58
C3446.07,4109.11,3552.71,4140.34,3640.43,4179.03
C3729.85,4218.47,3826.52,4277.48,3902.6,4338.82
C3980.12,4401.33,4059.59,4485.01,4118.19,4565.52
C4177.88,4647.54,4233.87,4750.89,4270.17,4845.61
C4307.14,4942.05,4334.83,5058.5,4345.45,5161.24
C4356.26,5265.82,4352.66,5387.6,4335.92,5491.4
C4318.87,5597.03,4283.12,5715.75,4239.21,5813.31
C4194.54,5912.56,4128.03,6019.74,4059.09,6103.97
C3988.99,6189.64,3895.35,6277.31,3805.39,6341.82
C3713.92,6407.4,3598.82,6468.75,3493.46,6508.32
C3386.36,6548.54,3257.18,6578.36,3143.31,6589.37
C3027.6,6600.57,2892.96,6595.73,2778.31,6576.48
C2661.83,6556.93,2531.02,6516.66,2423.62,6467.52
C2314.53,6417.61,2196.85,6343.61,2104.47,6267.08
C2010.66,6189.37,1914.77,6085.77,1844.36,5986.37
C1772.87,5885.45,1706.18,5758.61,1663.35,5642.59
C1619.87,5524.84,1587.93,5382.93,1576.52,5257.93
C1564.94,5131.08,1571.01,4983.6,1592.76,4858.09
C1614.83,4730.76,1659.62,4587.86,1713.98,4470.62
C1769.12,4351.7,1850.62,4223.51,1934.74,4122.98
C2020.05,4021.02,2133.61,3916.93,2242.23,3840.25
C2338.71,3772.16,2438.99,3679.01,2514.17,3587.91
C2588.16,3498.25,2659.67,3384.07,2707.83,3278.26
C2755.23,3174.14,2793.99,3047.36,2812.71,2934.5
C2831.12,2823.46,2835.55,2693.11,2824.48,2581.11
C2813.6,2470.95,2784.49,2346.02,2745.35,2242.47
C2706.87,2140.65,2647.31,2029.47,2583.69,1941.15
C2521.15,1854.34,2436.21,1764.02,2353.26,1696.45
C2271.74,1630.05,2168.07,1566.04,2072.1,1523.11
C1977.81,1480.94,1863.12,1446.69,1761.11,1430.49
C1660.94,1414.57,1543.43,1411.38,1442.56,1422.07
C1343.54,1432.56,1231.33,1459.54,1138.44,1495.42
C1047.28,1530.64,947.834,1584.85,868.972,1642.57
C791.603,1699.2,711.24,1775.93,651.271,1850.74
C592.46,1924.1,535.944,2017.27,498.254,2103.41
C461.305,2187.85,431.581,2290.46,417.889,2381.61
C404.471,2470.93,402.522,2575.59,412.825,2665.33
C422.917,2753.22,447.766,2852.7,480.402,2934.93
C512.355,3015.44,561.212,3103.14,613.037,3172.55
C663.754,3240.48,732.277,3310.89,798.943,3363.25
C864.155,3414.47,946.814,3463.49,1023.12,3495.94
C1097.73,3527.67,1188.24,3552.88,1268.54,3564.05
C1347.01,3574.97,1438.82,3575.69,1517.42,3565.76
C1594.19,3556.07,1680.94,3533.35,1752.51,3503.96
C1822.38,3475.27,1898.33,3431.77,1958.29,3385.84
C2016.77,3341.03,2077.22,3280.72,2121.98,3222.19
C2165.61,3165.14,2207.14,3092.98,2234.35,3026.51
C2260.86,2961.74,2281.54,2883.31,2290.2,2813.87
C2298.63,2746.26,2298.11,2667.28,2288.56,2599.82
C2279.27,2534.19,2258.68,2460.17,2232.53,2399.25
C2207.12,2340.03,2168.96,2275.82,2128.92,2225.32
C2090.03,2176.27,2037.92,2125.78,1987.54,2088.64
C1938.64,2052.59,1876.99,2018.55,1820.34,1996.59
C1765.42,1975.29,1699.07,1959.12,1640.49,1952.99
C1583.73,1947.05,1517.6,1948.81,1461.28,1957.99
C1406.77,1966.87,1345.47,1985.34,1295.22,2008.24
C1246.65,2030.38,1194.17,2063.19,1153.14,2097.34
C1113.52,2130.31,1072.99,2174.21,1043.46,2216.46
C1014.99,2257.2,988.442,2308.35,971.734,2355.16
C955.644,2400.24,943.995,2454.51,940.395,2502.24
C936.933,2548.14,939.931,2601.43,948.748,2646.61
C957.214,2689.99,973.548,2738.57,993.22,2778.15
C1012.08,2816.08,1039.54,2856.83,1067.8,2888.38
C1094.85,2918.58,1130.55,2949.17,1164.67,2971.06
C1197.24,2991.97,1237.9,3011.02,1274.88,3022.46
C1310.11,3033.36,1352.3,3040.49,1389.17,3041.55
C1424.22,3042.54,1464.68,3038.31,1498.71,3029.84
C1530.97,3021.81,1566.84,3007.6,1595.73,2991.14
C1623.04,2975.58,1652.05,2953.47,1674.12,2931.07
C1694.91,2909.97,1715.55,2882.46,1729.79,2856.47
C1743.16,2832.06,1754.73,2801.9,1760.87,2774.75
C1766.61,2749.35,1769.23,2719.23,1767.7,2693.24
C1766.27,2669.02,1760.79,2641.38,1752.63,2618.54
C1745.07,2597.36,1732.98,2574.19,1719.71,2556.04
C1707.48,2539.3,1690.69,2522,1674.16,2509.49
C1659.01,2498.04,1639.67,2487.32,1621.82,2480.83
C1605.57,2474.91,1585.86,2470.82,1568.59,2470.07
C1553,2469.39,1534.89,2471.3,1519.85,2475.5
C1506.39,2479.26,1491.51,2486,1479.99,2493.91
C1469.76,2500.94,1459.24,2510.97,1452.01,2521.06
C1445.64,2529.95,1440.01,2541.51,1437.31,2552.1
C1434.94,2561.39,1434.17,2572.71,1435.65,2582.18
C1436.95,2590.52,1440.45,2599.95,1445.21,2606.92
C1449.49,2613.17,1456.19,2619.35,1462.9,2622.87
C1469.2,2626.17,1477.56,2628.14,1484.67,2627.9Z"/>
</g>
</svg>
